#!OML:ASF G:\JayActor3\Patient Classification 1\Patient 1\Session 6\male.ASF
:FULLY-SPECIFIED
:DEGREES
2843
root -4.99001 16.6211 -3.23142 366.269 -71.7675 -361.725
lowerback 5.62826 -4.15973 -1.43018
upperback 1.3672 -5.6841 -1.84198
thorax -1.7845 -2.84302 -0.691456
lowerneck 12.873 -10.619 -4.2497
upperneck -16.4584 -16.6833 -4.82609
head -7.26917 -7.41813 0.785865
rclavicle 5.56597e-014 -1.82882e-014
rhumerus -17.5886 27.4753 -72.6417
rradius 91.7347
rwrist 15.7214
rhand -53.3355 10.6384
rfingers 7.12502
rthumb -25.787 -17.634
lclavicle 5.56597e-014 -1.82882e-014
lhumerus -39.7661 -9.74587 63.9904
lradius 69.8401
lwrist 17.9952
lhand -41.9895 -0.00193437
lfingers 7.12502
lthumb -14.885 29.4433
rfemur -19.6738 2.84352 26.3519
rtibia 34.7064
rfoot -19.5939 -5.14188
rtoes 11.7891
lfemur -7.33008 12.558 -16.1167
ltibia 26.9809
lfoot -16.3024 4.85517
ltoes -6.81377
2844
root -5.00012 16.6203 -3.23643 366.196 -71.7092 -361.639
lowerback 5.59901 -4.17418 -1.41096
upperback 1.34406 -5.70162 -1.8382
thorax -1.7936 -2.85159 -0.698149
lowerneck 12.8745 -10.6192 -4.25452
upperneck -16.4346 -16.6844 -4.84248
head -7.26282 -7.41798 0.780883
rclavicle 2.00773e-014 4.77083e-015
rhumerus -17.6073 27.549 -72.6212
rradius 91.7559
rwrist 15.7372
rhand -53.3681 10.6996
rfingers 7.12502
rthumb -25.8183 -17.5682
lclavicle 2.00773e-014 4.77083e-015
lhumerus -39.7549 -9.78789 64.0101
lradius 69.8647
lwrist 17.9787
lhand -41.9717 -0.0125182
lfingers 7.12502
lthumb -14.8679 29.434
rfemur -19.6341 2.78893 26.356
rtibia 34.6906
rfoot -19.6622 -5.13698
rtoes 11.8039
lfemur -7.28203 12.4644 -16.1198
ltibia 26.9159
lfoot -16.3131 4.88905
ltoes -6.7647
2845
root -5.00991 16.6192 -3.24128 366.134 -71.6552 -361.565
lowerback 5.57388 -4.18733 -1.39216
upperback 1.31821 -5.71754 -1.83242
thorax -1.80754 -2.8593 -0.702223
lowerneck 12.8805 -10.6178 -4.25792
upperneck -16.4077 -16.6836 -4.86154
head -7.25663 -7.41667 0.774871
rclavicle -1.66979e-014 -1.43125e-014
rhumerus -17.6324 27.6189 -72.6036
rradius 91.7823
rwrist 15.7433
rhand -53.4004 10.7452
rfingers 7.12502
rthumb -25.8492 -17.5181
lclavicle -1.66979e-014 -1.43125e-014
lhumerus -39.7475 -9.83148 64.0312
lradius 69.8869
lwrist 17.9528
lhand -41.9622 -0.00392061
lfingers 7.12502
lthumb -14.8587 29.4433
rfemur -19.5988 2.73864 26.3616
rtibia 34.6798
rfoot -19.7275 -5.12536
rtoes 11.8147
lfemur -7.24081 12.3772 -16.1239
ltibia 26.8609
lfoot -16.3304 4.93227
ltoes -6.7055
2846
root -5.01924 16.6182 -3.246 366.075 -71.6085 -361.494
lowerback 5.55307 -4.19723 -1.37588
upperback 1.29193 -5.72939 -1.82554
thorax -1.82394 -2.86495 -0.703719
lowerneck 12.8889 -10.6162 -4.25931
upperneck -16.3845 -16.6823 -4.87941
head -7.25206 -7.41509 0.769192
rclavicle 1.80894e-014 -1.59028e-015
rhumerus -17.661 27.6814 -72.5881
rradius 91.8128
rwrist 15.7389
rhand -53.4301 10.7596
rfingers 7.12502
rthumb -25.8777 -17.4996
lclavicle 1.80894e-014 -1.59028e-015
lhumerus -39.7378 -9.87626 64.0535
lradius 69.9047
lwrist 17.9209
lhand -41.9584 0.00157117
lfingers 7.12502
lthumb -14.8551 29.449
rfemur -19.571 2.69427 26.3665
rtibia 34.6761
rfoot -19.7836 -5.11319
rtoes 11.8055
lfemur -7.20596 12.3 -16.1315
ltibia 26.8154
lfoot -16.3534 4.98187
ltoes -6.62052
2847
root -5.02803 16.617 -3.25049 366.036 -71.5692 -361.445
lowerback 5.53331 -4.20296 -1.35521
upperback 1.27029 -5.73529 -1.81594
thorax -1.83628 -2.8677 -0.705408
lowerneck 12.8879 -10.6156 -4.25847
upperneck -16.3633 -16.681 -4.89403
head -7.24641 -7.4142 0.763674
rclavicle -2.32578e-014 1.51076e-014
rhumerus -17.6841 27.7316 -72.5692
rradius 91.846
rwrist 15.7217
rhand -53.4469 10.7434
rfingers 7.12502
rthumb -25.8938 -17.5134
lclavicle -2.32578e-014 1.51076e-014
lhumerus -39.7122 -9.9184 64.0768
lradius 69.9133
lwrist 17.8858
lhand -41.9591 0.0084913
lfingers 7.12502
lthumb -14.8557 29.4559
rfemur -19.5496 2.65353 26.3774
rtibia 34.678
rfoot -19.8317 -5.09816
rtoes 11.7819
lfemur -7.18047 12.2463 -16.1352
ltibia 26.7817
lfoot -16.3741 5.0324
ltoes -6.55634
2848
root -5.0363 16.6158 -3.25476 366.008 -71.5354 -361.41
lowerback 5.51593 -4.20472 -1.33294
upperback 1.25465 -5.73574 -1.80428
thorax -1.84369 -2.8678 -0.706346
lowerneck 12.8744 -10.6163 -4.25846
upperneck -16.345 -16.6798 -4.90128
head -7.23877 -7.41431 0.759807
rclavicle 8.94531e-015 1.59028e-014
rhumerus -17.7007 27.7691 -72.5461
rradius 91.8815
rwrist 15.6944
rhand -53.4531 10.7026
rfingers 7.12502
rthumb -25.8997 -17.5534
lclavicle 8.94531e-015 1.59028e-014
lhumerus -39.6701 -9.95647 64.1013
lradius 69.9132
lwrist 17.8527
lhand -41.9636 0.0127828
lfingers 7.12502
lthumb -14.8601 29.4599
rfemur -19.5312 2.61544 26.3923
rtibia 34.6838
rfoot -19.8707 -5.08504
rtoes 11.7461
lfemur -7.16253 12.2157 -16.1363
ltibia 26.7614
lfoot -16.394 5.07571
ltoes -6.49181
2849
root -5.04428 16.6144 -3.25889 366.023 -71.5041 -361.422
lowerback 5.49858 -4.20381 -1.29813
upperback 1.24554 -5.73163 -1.78753
thorax -1.84506 -2.86573 -0.70961
lowerneck 12.8422 -10.6203 -4.25598
upperneck -16.3215 -16.6814 -4.90918
head -7.22646 -7.41675 0.754285
rclavicle -1.25234e-014 -2.70347e-014
rhumerus -17.7106 27.7946 -72.5187
rradius 91.9175
rwrist 15.6599
rhand -53.4545 10.6594
rfingers 7.12502
rthumb -25.9011 -17.5964
lclavicle -1.25234e-014 -2.70347e-014
lhumerus -39.612 -9.98873 64.1259
lradius 69.9043
lwrist 17.8219
lhand -41.9727 0.0297444
lfingers 7.12502
lthumb -14.8689 29.4762
rfemur -19.5119 2.58365 26.4239
rtibia 34.6901
rfoot -19.9048 -5.07707
rtoes 11.7196
lfemur -7.15178 12.2121 -16.1205
ltibia 26.7558
lfoot -16.4105 5.10425
ltoes -6.43056
2850
root -5.05211 16.6128 -3.26305 366.065 -71.4786 -361.466
lowerback 5.48019 -4.19994 -1.26062
upperback 1.24206 -5.7232 -1.76647
thorax -1.83986 -2.86155 -0.710635
lowerneck 12.7973 -10.6293 -4.24696
upperneck -16.2978 -16.6893 -4.9234
head -7.21305 -7.42254 0.745799
rclavicle -8.82604e-014 3.97569e-015
rhumerus -17.7147 27.8106 -72.4891
rradius 91.9542
rwrist 15.6233
rhand -53.4573 10.6285
rfingers 7.12502
rthumb -25.9037 -17.6268
lclavicle -8.82604e-014 3.97569e-015
lhumerus -39.5434 -10.0119 64.1492
lradius 69.8897
lwrist 17.7978
lhand -41.9867 0.0507255
lfingers 7.12502
lthumb -14.8824 29.4962
rfemur -19.49 2.57115 26.4673
rtibia 34.6966
rfoot -19.9404 -5.0782
rtoes 11.7256
lfemur -7.14529 12.2273 -16.0932
ltibia 26.761
lfoot -16.4278 5.12334
ltoes -6.35621
2851
root -5.05954 16.6112 -3.26677 366.126 -71.4538 -361.533
lowerback 5.46428 -4.19639 -1.21511
upperback 1.24088 -5.71475 -1.74404
thorax -1.83429 -2.85741 -0.71456
lowerneck 12.7399 -10.6414 -4.22827
upperneck -16.2642 -16.7004 -4.94984
head -7.1962 -7.43026 0.731486
rclavicle -3.18055e-014 0
rhumerus -17.719 27.821 -72.4629
rradius 91.9903
rwrist 15.5903
rhand -53.4637 10.6079
rfingers 7.12502
rthumb -25.9099 -17.6466
lclavicle -3.18055e-014 0
lhumerus -39.4736 -10.0263 64.1697
lradius 69.8731
lwrist 17.7796
lhand -41.995 0.0651908
lfingers 7.12502
lthumb -14.8903 29.51
rfemur -19.4656 2.56344 26.5177
rtibia 34.7037
rfoot -19.9753 -5.08033
rtoes 11.7609
lfemur -7.13775 12.25 -16.0589
ltibia 26.7714
lfoot -16.4475 5.13502
ltoes -6.26656
